<svg width="196" height="88" viewBox="0 0 196 88" fill="none" xmlns="http://www.w3.org/2000/svg">
<g filter="url(#filter0_d_175_6848)">
<rect x="8.5" y="8" width="175" height="72" rx="8" fill="white" shape-rendering="crispEdges"/>
<rect x="32.5" y="24" width="40" height="40" rx="20" fill="#E9E9E9"/>
<g style="mix-blend-mode:luminosity" opacity="0.5">
<path d="M54.6683 43.1241L56.207 40.5131L60.3545 46.9729L60.3564 48.2126L60.3429 39.6818C60.3331 39.4731 60.2223 39.2823 60.0457 39.1698L52.5786 34.8748C52.4041 34.7889 52.1825 34.7899 52.0081 34.8775C51.9846 34.8893 51.9625 34.9021 51.9414 34.9162L51.9153 34.9325L44.6673 39.1327L44.6392 39.1456C44.6029 39.1621 44.5665 39.1833 44.532 39.2078C44.3946 39.3063 44.3033 39.4521 44.2738 39.6155C44.2694 39.6402 44.2661 39.6655 44.2646 39.691L44.276 46.6428L48.1392 40.6551C48.6255 39.8612 49.6853 39.6053 50.6691 39.6194L51.8237 39.6498L45.0207 50.5598L45.8226 51.0215L52.707 39.6609L55.7501 39.6498L48.8834 51.2971L51.7449 52.9431L52.0868 53.1396C52.2314 53.1984 52.4019 53.2014 52.5477 53.1486L60.1197 48.7605L58.672 49.5994L54.6683 43.1241ZM55.2553 51.5796L52.3651 47.0434L54.1295 44.0495L57.9252 50.0322L55.2553 51.5796Z" fill="#2D374B"/>
<path d="M52.3645 47.0435L55.2547 51.5797L57.9245 50.0324L54.1288 44.0496L52.3645 47.0435Z" fill="#28A0F0"/>
<path d="M60.3559 48.2127L60.354 46.973L56.2064 40.5132L54.6677 43.1242L58.6716 49.5996L60.1193 48.7606C60.2613 48.6454 60.3473 48.4761 60.3563 48.2935L60.3559 48.2127Z" fill="#28A0F0"/>
<path d="M42.9761 49.3818L45.0204 50.5598L51.8234 39.6498L50.6689 39.6194C49.6852 39.6054 48.6254 39.8612 48.139 40.6552L44.2758 46.6428L42.9761 48.6397V49.3818Z" fill="white"/>
<path d="M55.7497 39.6498L52.7067 39.6609L45.8223 51.0215L48.2287 52.4069L48.8829 51.2971L55.7497 39.6498Z" fill="white"/>
<path d="M61.6385 39.6341C61.6131 38.9977 61.2685 38.4152 60.7288 38.076L53.1639 33.7256C52.63 33.4568 51.963 33.4564 51.4281 33.7254C51.365 33.7573 44.0714 37.9873 44.0714 37.9873C43.9705 38.0357 43.8733 38.0933 43.7819 38.1588C43.3001 38.5042 43.0064 39.0408 42.9761 39.6302V48.6399L44.2758 46.643L44.2644 39.6911C44.266 39.6657 44.2692 39.6405 44.2736 39.6159C44.303 39.4523 44.3944 39.3065 44.5318 39.2079C44.5662 39.1834 51.9842 34.8894 52.0078 34.8775C52.1822 34.79 52.4037 34.7889 52.5783 34.8748L60.0454 39.1698C60.222 39.2824 60.3327 39.4732 60.3425 39.6818V48.2933C60.3335 48.4759 60.2613 48.6452 60.1194 48.7604L58.6717 49.5993L57.9247 50.0323L55.2549 51.5795L52.5473 53.1485C52.4015 53.2012 52.231 53.1983 52.0864 53.1395L48.883 51.297L48.2286 52.4068L51.1075 54.0643C51.2026 54.1184 51.2875 54.1664 51.3571 54.2056C51.4649 54.266 51.5384 54.3064 51.5643 54.319C51.7689 54.4184 52.0632 54.4762 52.3285 54.4762C52.5717 54.4762 52.8089 54.4316 53.0334 54.3436L60.8977 49.7894C61.349 49.4396 61.6146 48.9122 61.6385 48.3409V39.6341Z" fill="white"/>
</g>
<path d="M88.654 50L92.252 39.57H94.716L98.314 50H96.242L95.5 47.76H91.468L90.712 50H88.654ZM92.014 46.08H94.954L93.218 40.886H93.75L92.014 46.08ZM99.7408 50V42.384H101.463V44.078L101.323 43.826C101.5 43.2567 101.775 42.86 102.149 42.636C102.531 42.412 102.989 42.3 103.521 42.3H103.969V43.924H103.311C102.788 43.924 102.368 44.0873 102.051 44.414C101.733 44.7313 101.575 45.1793 101.575 45.758V50H99.7408ZM109.555 50.168C109.004 50.168 108.496 50.0607 108.029 49.846C107.572 49.622 107.208 49.3047 106.937 48.894L107.119 48.53V50H105.397V39.402H107.231V43.896L106.951 43.518C107.212 43.1073 107.567 42.79 108.015 42.566C108.463 42.3327 108.981 42.216 109.569 42.216C110.288 42.216 110.936 42.3933 111.515 42.748C112.094 43.1027 112.551 43.5787 112.887 44.176C113.232 44.7733 113.405 45.4453 113.405 46.192C113.405 46.9293 113.237 47.6013 112.901 48.208C112.565 48.8147 112.108 49.2953 111.529 49.65C110.95 49.9953 110.292 50.168 109.555 50.168ZM109.345 48.488C109.765 48.488 110.138 48.39 110.465 48.194C110.792 47.998 111.044 47.7273 111.221 47.382C111.408 47.0367 111.501 46.64 111.501 46.192C111.501 45.744 111.408 45.352 111.221 45.016C111.044 44.6707 110.792 44.4 110.465 44.204C110.138 43.9987 109.765 43.896 109.345 43.896C108.944 43.896 108.58 43.994 108.253 44.19C107.936 44.386 107.684 44.6613 107.497 45.016C107.32 45.3613 107.231 45.7533 107.231 46.192C107.231 46.64 107.32 47.0367 107.497 47.382C107.684 47.7273 107.936 47.998 108.253 48.194C108.58 48.39 108.944 48.488 109.345 48.488ZM115.223 50V42.384H117.057V50H115.223ZM115.223 41.53V39.57H117.057V41.53H115.223ZM122.643 50.084C121.784 50.084 121.117 49.8507 120.641 49.384C120.174 48.908 119.941 48.2407 119.941 47.382V44.022H118.625V42.384H118.765C119.138 42.384 119.427 42.286 119.633 42.09C119.838 41.894 119.941 41.6093 119.941 41.236V40.648H121.775V42.384H123.525V44.022H121.775V47.284C121.775 47.536 121.817 47.7507 121.901 47.928C121.994 48.1053 122.134 48.2407 122.321 48.334C122.517 48.4273 122.764 48.474 123.063 48.474C123.128 48.474 123.203 48.4693 123.287 48.46C123.38 48.4507 123.469 48.4413 123.553 48.432V50C123.422 50.0187 123.273 50.0373 123.105 50.056C122.937 50.0747 122.783 50.084 122.643 50.084ZM125.374 50V42.384H127.096V44.078L126.956 43.826C127.133 43.2567 127.409 42.86 127.782 42.636C128.165 42.412 128.622 42.3 129.154 42.3H129.602V43.924H128.944C128.421 43.924 128.001 44.0873 127.684 44.414C127.367 44.7313 127.208 45.1793 127.208 45.758V50H125.374ZM133.746 50.168C133.158 50.168 132.645 50.0373 132.206 49.776C131.777 49.5147 131.446 49.1507 131.212 48.684C130.988 48.2173 130.876 47.6713 130.876 47.046V42.384H132.71V46.892C132.71 47.2093 132.771 47.4893 132.892 47.732C133.023 47.9653 133.205 48.152 133.438 48.292C133.681 48.4227 133.952 48.488 134.25 48.488C134.549 48.488 134.815 48.4227 135.048 48.292C135.282 48.152 135.464 47.9607 135.594 47.718C135.725 47.4753 135.79 47.186 135.79 46.85V42.384H137.624V50H135.888V48.502L136.042 48.768C135.865 49.2347 135.571 49.5847 135.16 49.818C134.759 50.0513 134.288 50.168 133.746 50.168ZM139.749 50V42.384H141.471V44.148L141.275 43.854C141.415 43.3033 141.695 42.8927 142.115 42.622C142.535 42.3513 143.03 42.216 143.599 42.216C144.224 42.216 144.775 42.3793 145.251 42.706C145.727 43.0327 146.035 43.462 146.175 43.994L145.657 44.036C145.89 43.4293 146.24 42.9767 146.707 42.678C147.174 42.37 147.71 42.216 148.317 42.216C148.858 42.216 149.339 42.3373 149.759 42.58C150.188 42.8227 150.524 43.1633 150.767 43.602C151.01 44.0313 151.131 44.5307 151.131 45.1V50H149.297V45.534C149.297 45.198 149.236 44.9087 149.115 44.666C148.994 44.4233 148.826 44.2367 148.611 44.106C148.396 43.966 148.135 43.896 147.827 43.896C147.538 43.896 147.281 43.966 147.057 44.106C146.833 44.2367 146.66 44.4233 146.539 44.666C146.418 44.9087 146.357 45.198 146.357 45.534V50H144.523V45.534C144.523 45.198 144.462 44.9087 144.341 44.666C144.22 44.4233 144.047 44.2367 143.823 44.106C143.608 43.966 143.352 43.896 143.053 43.896C142.764 43.896 142.507 43.966 142.283 44.106C142.059 44.2367 141.886 44.4233 141.765 44.666C141.644 44.9087 141.583 45.198 141.583 45.534V50H139.749Z" fill="#021825"/>
</g>
<defs>
<filter id="filter0_d_175_6848" x="-3.5" y="-4" width="199" height="96" filterUnits="userSpaceOnUse" color-interpolation-filters="sRGB">
<feFlood flood-opacity="0" result="BackgroundImageFix"/>
<feColorMatrix in="SourceAlpha" type="matrix" values="0 0 0 0 0 0 0 0 0 0 0 0 0 0 0 0 0 0 127 0" result="hardAlpha"/>
<feOffset/>
<feGaussianBlur stdDeviation="6"/>
<feComposite in2="hardAlpha" operator="out"/>
<feColorMatrix type="matrix" values="0 0 0 0 0 0 0 0 0 0 0 0 0 0 0 0 0 0 0.1 0"/>
<feBlend mode="normal" in2="BackgroundImageFix" result="effect1_dropShadow_175_6848"/>
<feBlend mode="normal" in="SourceGraphic" in2="effect1_dropShadow_175_6848" result="shape"/>
</filter>
</defs>
</svg>
