<svg width="203" height="88" viewBox="0 0 203 88" fill="none" xmlns="http://www.w3.org/2000/svg">
<g filter="url(#filter0_d_175_6860)">
<rect x="12" y="8" width="179" height="72" rx="8" fill="white" shape-rendering="crispEdges"/>
<g style="mix-blend-mode:luminosity" opacity="0.5">
<g clip-path="url(#clip0_175_6860)">
<path d="M68.3139 30.8617H43.6331V53.3085H68.3139V30.8617Z" fill="white"/>
<path fill-rule="evenodd" clip-rule="evenodd" d="M75.96 44C75.96 55.0311 67.0177 63.9734 55.9866 63.9734C44.9556 63.9734 36.0132 55.0311 36.0132 44C36.0132 32.969 44.9556 24.0266 55.9866 24.0266C67.0177 24.0266 75.96 32.969 75.96 44ZM50.3267 51.9484H46.4504C45.6359 51.9484 45.2336 51.9484 44.9882 51.7915C44.7233 51.6197 44.5613 51.3351 44.5417 51.021C44.527 50.7317 44.7282 50.3783 45.1305 49.6717L54.7015 32.8015C55.1088 32.0851 55.3149 31.7269 55.5749 31.5944C55.8546 31.4521 56.1883 31.4521 56.4679 31.5944C56.728 31.7269 56.9341 32.0851 57.3413 32.8015L59.3089 36.2362L59.319 36.2537C59.7588 37.0222 59.9819 37.412 60.0793 37.821C60.1872 38.2675 60.1872 38.7386 60.0793 39.1851C59.9811 39.5972 59.7603 39.9898 59.3138 40.7699L54.2864 49.657L54.2734 49.6797C53.8306 50.4546 53.6062 50.8474 53.2953 51.1436C52.9567 51.4676 52.5494 51.7029 52.1029 51.8356C51.6957 51.9484 51.2394 51.9484 50.3267 51.9484ZM60.1156 51.9484H65.6698C66.4893 51.9484 66.9015 51.9484 67.147 51.7867C67.4119 51.6149 67.5786 51.3253 67.5935 51.0114C67.6076 50.7314 67.4108 50.3918 67.0252 49.7263C67.0119 49.7036 66.9986 49.6805 66.985 49.6571L64.2028 44.8976L64.1712 44.844C63.7802 44.1829 63.5829 43.8491 63.3294 43.72C63.0499 43.5777 62.7209 43.5777 62.4414 43.72C62.1862 43.8525 61.9801 44.2009 61.5729 44.9025L58.8006 49.662L58.7911 49.6784C58.3853 50.3789 58.1824 50.729 58.1971 51.0162C58.2167 51.3303 58.3786 51.6197 58.6436 51.7915C58.884 51.9484 59.2962 51.9484 60.1156 51.9484Z" fill="#E84142"/>
</g>
</g>
<path d="M92.154 50L95.752 39.57H98.216L101.814 50H99.742L99 47.76H94.968L94.212 50H92.154ZM95.514 46.08H98.454L96.718 40.886H97.25L95.514 46.08ZM105.113 50L102.117 42.384H104.119L106.289 48.376H105.547L107.731 42.384H109.733L106.737 50H105.113ZM113.203 50.168C112.671 50.168 112.209 50.0793 111.817 49.902C111.425 49.7247 111.122 49.4727 110.907 49.146C110.693 48.81 110.585 48.4227 110.585 47.984C110.585 47.564 110.679 47.1907 110.865 46.864C111.052 46.528 111.341 46.248 111.733 46.024C112.125 45.8 112.62 45.6413 113.217 45.548L115.709 45.142V46.542L113.567 46.906C113.203 46.9713 112.933 47.088 112.755 47.256C112.578 47.424 112.489 47.6433 112.489 47.914C112.489 48.1753 112.587 48.3853 112.783 48.544C112.989 48.6933 113.241 48.768 113.539 48.768C113.922 48.768 114.258 48.6887 114.547 48.53C114.846 48.362 115.075 48.1333 115.233 47.844C115.401 47.5547 115.485 47.2373 115.485 46.892V44.932C115.485 44.6053 115.355 44.3347 115.093 44.12C114.841 43.896 114.505 43.784 114.085 43.784C113.693 43.784 113.343 43.8913 113.035 44.106C112.737 44.3113 112.517 44.5867 112.377 44.932L110.879 44.204C111.029 43.8027 111.262 43.4573 111.579 43.168C111.906 42.8693 112.289 42.636 112.727 42.468C113.166 42.3 113.642 42.216 114.155 42.216C114.781 42.216 115.331 42.3327 115.807 42.566C116.283 42.79 116.652 43.1073 116.913 43.518C117.184 43.9193 117.319 44.3907 117.319 44.932V50H115.583V48.698L115.975 48.67C115.779 48.9967 115.546 49.272 115.275 49.496C115.005 49.7107 114.697 49.8787 114.351 50C114.006 50.112 113.623 50.168 113.203 50.168ZM119.434 50V39.402H121.268V50H119.434ZM125.692 50.168C125.16 50.168 124.698 50.0793 124.306 49.902C123.914 49.7247 123.61 49.4727 123.396 49.146C123.181 48.81 123.074 48.4227 123.074 47.984C123.074 47.564 123.167 47.1907 123.354 46.864C123.54 46.528 123.83 46.248 124.222 46.024C124.614 45.8 125.108 45.6413 125.706 45.548L128.198 45.142V46.542L126.056 46.906C125.692 46.9713 125.421 47.088 125.244 47.256C125.066 47.424 124.978 47.6433 124.978 47.914C124.978 48.1753 125.076 48.3853 125.272 48.544C125.477 48.6933 125.729 48.768 126.028 48.768C126.41 48.768 126.746 48.6887 127.036 48.53C127.334 48.362 127.563 48.1333 127.722 47.844C127.89 47.5547 127.974 47.2373 127.974 46.892V44.932C127.974 44.6053 127.843 44.3347 127.582 44.12C127.33 43.896 126.994 43.784 126.574 43.784C126.182 43.784 125.832 43.8913 125.524 44.106C125.225 44.3113 125.006 44.5867 124.866 44.932L123.368 44.204C123.517 43.8027 123.75 43.4573 124.068 43.168C124.394 42.8693 124.777 42.636 125.216 42.468C125.654 42.3 126.13 42.216 126.644 42.216C127.269 42.216 127.82 42.3327 128.296 42.566C128.772 42.79 129.14 43.1073 129.402 43.518C129.672 43.9193 129.808 44.3907 129.808 44.932V50H128.072V48.698L128.464 48.67C128.268 48.9967 128.034 49.272 127.764 49.496C127.493 49.7107 127.185 49.8787 126.84 50C126.494 50.112 126.112 50.168 125.692 50.168ZM131.923 50V42.384H133.645V43.882L133.505 43.616C133.682 43.1587 133.971 42.8133 134.373 42.58C134.783 42.3373 135.259 42.216 135.801 42.216C136.361 42.216 136.855 42.3373 137.285 42.58C137.723 42.8227 138.064 43.1633 138.307 43.602C138.549 44.0313 138.671 44.5307 138.671 45.1V50H136.837V45.534C136.837 45.198 136.771 44.9087 136.641 44.666C136.51 44.4233 136.328 44.2367 136.095 44.106C135.871 43.966 135.605 43.896 135.297 43.896C134.998 43.896 134.732 43.966 134.499 44.106C134.265 44.2367 134.083 44.4233 133.953 44.666C133.822 44.9087 133.757 45.198 133.757 45.534V50H131.923ZM144.31 50.168C143.554 50.168 142.872 49.9953 142.266 49.65C141.668 49.2953 141.197 48.8193 140.852 48.222C140.506 47.6153 140.334 46.934 140.334 46.178C140.334 45.422 140.506 44.7453 140.852 44.148C141.197 43.5507 141.668 43.0793 142.266 42.734C142.872 42.3887 143.554 42.216 144.31 42.216C144.851 42.216 145.355 42.314 145.822 42.51C146.288 42.6967 146.69 42.958 147.026 43.294C147.371 43.6207 147.618 44.0127 147.768 44.47L146.158 45.17C146.018 44.7873 145.78 44.4793 145.444 44.246C145.117 44.0127 144.739 43.896 144.31 43.896C143.908 43.896 143.549 43.994 143.232 44.19C142.924 44.386 142.681 44.6567 142.504 45.002C142.326 45.3473 142.238 45.744 142.238 46.192C142.238 46.64 142.326 47.0367 142.504 47.382C142.681 47.7273 142.924 47.998 143.232 48.194C143.549 48.39 143.908 48.488 144.31 48.488C144.748 48.488 145.131 48.3713 145.458 48.138C145.784 47.9047 146.018 47.592 146.158 47.2L147.768 47.928C147.618 48.3573 147.376 48.7447 147.04 49.09C146.704 49.426 146.302 49.692 145.836 49.888C145.369 50.0747 144.86 50.168 144.31 50.168ZM149.579 50V39.402H151.413V43.882L151.161 43.616C151.338 43.1587 151.628 42.8133 152.029 42.58C152.44 42.3373 152.916 42.216 153.457 42.216C154.017 42.216 154.512 42.3373 154.941 42.58C155.38 42.8227 155.72 43.1633 155.963 43.602C156.206 44.0313 156.327 44.5307 156.327 45.1V50H154.493V45.534C154.493 45.198 154.428 44.9087 154.297 44.666C154.166 44.4233 153.984 44.2367 153.751 44.106C153.527 43.966 153.261 43.896 152.953 43.896C152.654 43.896 152.388 43.966 152.155 44.106C151.922 44.2367 151.74 44.4233 151.609 44.666C151.478 44.9087 151.413 45.198 151.413 45.534V50H149.579ZM161.91 50.168C161.126 50.168 160.44 49.9907 159.852 49.636C159.264 49.2813 158.807 48.8007 158.48 48.194C158.153 47.5873 157.99 46.9153 157.99 46.178C157.99 45.4127 158.153 44.736 158.48 44.148C158.816 43.5507 159.269 43.0793 159.838 42.734C160.417 42.3887 161.061 42.216 161.77 42.216C162.367 42.216 162.89 42.314 163.338 42.51C163.795 42.706 164.183 42.9767 164.5 43.322C164.817 43.6673 165.06 44.064 165.228 44.512C165.396 44.9507 165.48 45.4267 165.48 45.94C165.48 46.0707 165.471 46.206 165.452 46.346C165.443 46.486 165.419 46.6073 165.382 46.71H159.502V45.31H164.346L163.478 45.968C163.562 45.5387 163.539 45.156 163.408 44.82C163.287 44.484 163.081 44.218 162.792 44.022C162.512 43.826 162.171 43.728 161.77 43.728C161.387 43.728 161.047 43.826 160.748 44.022C160.449 44.2087 160.221 44.4887 160.062 44.862C159.913 45.226 159.857 45.6693 159.894 46.192C159.857 46.6587 159.917 47.074 160.076 47.438C160.244 47.7927 160.487 48.068 160.804 48.264C161.131 48.46 161.504 48.558 161.924 48.558C162.344 48.558 162.699 48.4693 162.988 48.292C163.287 48.1147 163.52 47.8767 163.688 47.578L165.172 48.306C165.023 48.67 164.789 48.992 164.472 49.272C164.155 49.552 163.777 49.7713 163.338 49.93C162.909 50.0887 162.433 50.168 161.91 50.168Z" fill="#021825"/>
</g>
<defs>
<filter id="filter0_d_175_6860" x="0" y="-4" width="203" height="96" filterUnits="userSpaceOnUse" color-interpolation-filters="sRGB">
<feFlood flood-opacity="0" result="BackgroundImageFix"/>
<feColorMatrix in="SourceAlpha" type="matrix" values="0 0 0 0 0 0 0 0 0 0 0 0 0 0 0 0 0 0 127 0" result="hardAlpha"/>
<feOffset/>
<feGaussianBlur stdDeviation="6"/>
<feComposite in2="hardAlpha" operator="out"/>
<feColorMatrix type="matrix" values="0 0 0 0 0 0 0 0 0 0 0 0 0 0 0 0 0 0 0.1 0"/>
<feBlend mode="normal" in2="BackgroundImageFix" result="effect1_dropShadow_175_6860"/>
<feBlend mode="normal" in="SourceGraphic" in2="effect1_dropShadow_175_6860" result="shape"/>
</filter>
<clipPath id="clip0_175_6860">
<rect width="39.9734" height="40" fill="white" transform="translate(36 24)"/>
</clipPath>
</defs>
</svg>
