<svg width="199" height="88" viewBox="0 0 199 88" fill="none" xmlns="http://www.w3.org/2000/svg">
<g filter="url(#filter0_d_175_6870)">
<rect x="12" y="8" width="175" height="72" rx="8" fill="white" shape-rendering="crispEdges"/>
<g style="mix-blend-mode:luminosity" opacity="0.5">
<path d="M75.4014 48.8382C72.7298 59.5525 61.8768 66.0731 51.16 63.4012C40.4476 60.73 33.9263 49.8776 36.5991 39.164C39.2694 28.4484 50.1224 21.9273 60.8361 24.5985C71.5522 27.2697 78.0729 38.1234 75.4014 48.8382Z" fill="#F7931A"/>
<path d="M64.8189 41.1507C65.2171 38.4895 63.1906 37.0589 60.4197 36.1045L61.3186 32.4995L59.124 31.9527L58.2489 35.4626C57.6719 35.3189 57.0794 35.1833 56.4905 35.0489L57.3719 31.5158L55.1785 30.9689L54.2791 34.5726C53.8015 34.4639 53.3327 34.3564 52.8777 34.2433L52.8802 34.232L49.8536 33.4764L49.2698 35.8201C49.2698 35.8201 50.8981 36.1933 50.8637 36.2164C51.7525 36.4383 51.9132 37.0264 51.8863 37.4926L50.8624 41.5995C50.9237 41.6151 51.0031 41.6376 51.0906 41.6726C51.0175 41.6545 50.9393 41.6344 50.8587 41.6151L49.4235 47.3682C49.3148 47.6381 49.0391 48.0431 48.4178 47.8894C48.4397 47.9213 46.8227 47.4913 46.8227 47.4913L45.7332 50.0031L48.5891 50.715C49.1204 50.8481 49.6411 50.9875 50.1536 51.1187L49.2454 54.7649L51.4375 55.3118L52.337 51.7044C52.9358 51.8668 53.5171 52.0169 54.0859 52.1581L53.1896 55.7487L55.3842 56.2956L56.2924 52.6562C60.0347 53.3643 62.8487 53.0787 64.0332 49.6944C64.9877 46.9694 63.9857 45.3975 62.0168 44.3726C63.4507 44.0419 64.5308 43.0988 64.8189 41.1507ZM59.8046 48.1813C59.1264 50.9062 54.5378 49.4331 53.0502 49.0637L54.2553 44.2332C55.743 44.6044 60.5135 45.3394 59.8046 48.1813ZM60.4835 41.1113C59.8646 43.5901 56.0455 42.3307 54.8066 42.0219L55.8992 37.6408C57.1381 37.9495 61.1279 38.5257 60.4835 41.1113Z" fill="white"/>
</g>
<path d="M93.008 50V39.57H97.404C98.0947 39.57 98.6827 39.6913 99.168 39.934C99.6627 40.1673 100.041 40.5033 100.302 40.942C100.573 41.3713 100.708 41.894 100.708 42.51C100.708 42.986 100.577 43.434 100.316 43.854C100.064 44.2647 99.658 44.6053 99.098 44.876V43.994C99.6113 44.19 100.017 44.4327 100.316 44.722C100.615 45.0113 100.825 45.3333 100.946 45.688C101.067 46.0427 101.128 46.416 101.128 46.808C101.128 47.8067 100.797 48.5907 100.134 49.16C99.4807 49.72 98.5707 50 97.404 50H93.008ZM94.912 48.32H97.6C98.0947 48.32 98.4867 48.1847 98.776 47.914C99.0747 47.634 99.224 47.2653 99.224 46.808C99.224 46.3507 99.0747 45.982 98.776 45.702C98.4867 45.422 98.0947 45.282 97.6 45.282H94.912V48.32ZM94.912 43.616H97.502C97.894 43.616 98.2067 43.504 98.44 43.28C98.6733 43.0467 98.79 42.748 98.79 42.384C98.79 42.02 98.6733 41.7307 98.44 41.516C98.2067 41.3013 97.894 41.194 97.502 41.194H94.912V43.616ZM102.954 50V42.384H104.788V50H102.954ZM102.954 41.53V39.57H104.788V41.53H102.954ZM110.373 50.084C109.514 50.084 108.847 49.8507 108.371 49.384C107.904 48.908 107.671 48.2407 107.671 47.382V44.022H106.355V42.384H106.495C106.868 42.384 107.158 42.286 107.363 42.09C107.568 41.894 107.671 41.6093 107.671 41.236V40.648H109.505V42.384H111.255V44.022H109.505V47.284C109.505 47.536 109.547 47.7507 109.631 47.928C109.724 48.1053 109.864 48.2407 110.051 48.334C110.247 48.4273 110.494 48.474 110.793 48.474C110.858 48.474 110.933 48.4693 111.017 48.46C111.11 48.4507 111.199 48.4413 111.283 48.432V50C111.152 50.0187 111.003 50.0373 110.835 50.056C110.667 50.0747 110.513 50.084 110.373 50.084ZM116.704 50.168C115.948 50.168 115.267 49.9953 114.66 49.65C114.063 49.2953 113.591 48.8193 113.246 48.222C112.901 47.6153 112.728 46.934 112.728 46.178C112.728 45.422 112.901 44.7453 113.246 44.148C113.591 43.5507 114.063 43.0793 114.66 42.734C115.267 42.3887 115.948 42.216 116.704 42.216C117.245 42.216 117.749 42.314 118.216 42.51C118.683 42.6967 119.084 42.958 119.42 43.294C119.765 43.6207 120.013 44.0127 120.162 44.47L118.552 45.17C118.412 44.7873 118.174 44.4793 117.838 44.246C117.511 44.0127 117.133 43.896 116.704 43.896C116.303 43.896 115.943 43.994 115.626 44.19C115.318 44.386 115.075 44.6567 114.898 45.002C114.721 45.3473 114.632 45.744 114.632 46.192C114.632 46.64 114.721 47.0367 114.898 47.382C115.075 47.7273 115.318 47.998 115.626 48.194C115.943 48.39 116.303 48.488 116.704 48.488C117.143 48.488 117.525 48.3713 117.852 48.138C118.179 47.9047 118.412 47.592 118.552 47.2L120.162 47.928C120.013 48.3573 119.77 48.7447 119.434 49.09C119.098 49.426 118.697 49.692 118.23 49.888C117.763 50.0747 117.255 50.168 116.704 50.168ZM125.697 50.168C124.951 50.168 124.269 49.9953 123.653 49.65C123.047 49.3047 122.561 48.8333 122.197 48.236C121.843 47.6387 121.665 46.9573 121.665 46.192C121.665 45.4267 121.843 44.7453 122.197 44.148C122.561 43.5507 123.047 43.0793 123.653 42.734C124.26 42.3887 124.941 42.216 125.697 42.216C126.444 42.216 127.121 42.3887 127.727 42.734C128.334 43.0793 128.815 43.5507 129.169 44.148C129.533 44.736 129.715 45.4173 129.715 46.192C129.715 46.9573 129.533 47.6387 129.169 48.236C128.805 48.8333 128.32 49.3047 127.713 49.65C127.107 49.9953 126.435 50.168 125.697 50.168ZM125.697 48.488C126.108 48.488 126.467 48.39 126.775 48.194C127.093 47.998 127.34 47.7273 127.517 47.382C127.704 47.0273 127.797 46.6307 127.797 46.192C127.797 45.744 127.704 45.352 127.517 45.016C127.34 44.6707 127.093 44.4 126.775 44.204C126.467 43.9987 126.108 43.896 125.697 43.896C125.277 43.896 124.909 43.9987 124.591 44.204C124.274 44.4 124.022 44.6707 123.835 45.016C123.658 45.352 123.569 45.744 123.569 46.192C123.569 46.6307 123.658 47.0273 123.835 47.382C124.022 47.7273 124.274 47.998 124.591 48.194C124.909 48.39 125.277 48.488 125.697 48.488ZM131.526 50V42.384H133.36V50H131.526ZM131.526 41.53V39.57H133.36V41.53H131.526ZM135.474 50V42.384H137.196V43.882L137.056 43.616C137.233 43.1587 137.522 42.8133 137.924 42.58C138.334 42.3373 138.81 42.216 139.352 42.216C139.912 42.216 140.406 42.3373 140.836 42.58C141.274 42.8227 141.615 43.1633 141.858 43.602C142.1 44.0313 142.222 44.5307 142.222 45.1V50H140.388V45.534C140.388 45.198 140.322 44.9087 140.192 44.666C140.061 44.4233 139.879 44.2367 139.646 44.106C139.422 43.966 139.156 43.896 138.848 43.896C138.549 43.896 138.283 43.966 138.05 44.106C137.816 44.2367 137.634 44.4233 137.504 44.666C137.373 44.9087 137.308 45.198 137.308 45.534V50H135.474Z" fill="#021825"/>
</g>
<defs>
<filter id="filter0_d_175_6870" x="0" y="-4" width="199" height="96" filterUnits="userSpaceOnUse" color-interpolation-filters="sRGB">
<feFlood flood-opacity="0" result="BackgroundImageFix"/>
<feColorMatrix in="SourceAlpha" type="matrix" values="0 0 0 0 0 0 0 0 0 0 0 0 0 0 0 0 0 0 127 0" result="hardAlpha"/>
<feOffset/>
<feGaussianBlur stdDeviation="6"/>
<feComposite in2="hardAlpha" operator="out"/>
<feColorMatrix type="matrix" values="0 0 0 0 0 0 0 0 0 0 0 0 0 0 0 0 0 0 0.1 0"/>
<feBlend mode="normal" in2="BackgroundImageFix" result="effect1_dropShadow_175_6870"/>
<feBlend mode="normal" in="SourceGraphic" in2="effect1_dropShadow_175_6870" result="shape"/>
</filter>
</defs>
</svg>
