<svg width="199" height="88" viewBox="0 0 199 88" fill="none" xmlns="http://www.w3.org/2000/svg">
<g filter="url(#filter0_d_175_6875)">
<rect x="12" y="8" width="175" height="72" rx="8" fill="white" shape-rendering="crispEdges"/>
<g style="mix-blend-mode:luminosity" opacity="0.5">
<circle cx="56" cy="44" r="20" fill="#0033AD"/>
<path d="M55.6845 32.1655C56.245 31.8733 56.9291 32.5512 56.6313 33.1112C56.4584 33.5676 55.8027 33.689 55.4677 33.3411C55.1129 33.0072 55.2286 32.3472 55.6845 32.1655ZM49.6564 32.8153C49.9969 32.6752 50.4279 32.9871 50.3931 33.3582C50.4293 33.761 49.9367 34.0575 49.5897 33.866C49.1299 33.6879 49.1825 32.9416 49.6564 32.8153ZM62.0027 33.8773C61.4706 33.813 61.3864 32.9766 61.8986 32.8081C62.2959 32.6144 62.6604 32.9777 62.7186 33.3543C62.6352 33.6759 62.366 33.9703 62.0027 33.8773ZM51.028 35.381C51.5972 35.021 52.4094 35.5571 52.3218 36.2182C52.2923 36.8858 51.4056 37.2725 50.9054 36.8212C50.4217 36.4668 50.495 35.6536 51.028 35.381ZM59.717 35.763C59.971 35.1085 60.9999 35.0887 61.289 35.7258C61.5746 36.2216 61.2233 36.8355 60.7142 37.0041C60.04 37.1299 59.3996 36.4011 59.717 35.763ZM54.9586 36.9669C54.9531 36.4044 55.4654 35.9853 56 35.947C56.3546 36.0181 56.7411 36.1691 56.8932 36.5269C57.1767 37.0205 56.925 37.7002 56.4127 37.9267C56.1785 38.058 55.9015 38.0087 55.6465 37.9934C55.2565 37.802 54.9281 37.4266 54.9586 36.9669ZM45.9939 37.7866C46.5139 37.4669 47.2154 38.0503 47.0185 38.6151C46.9101 39.1036 46.2534 39.3024 45.878 38.9905C45.4772 38.6983 45.5407 37.9956 45.9939 37.7866ZM65.2443 37.7855C65.6855 37.443 66.4134 37.8359 66.3609 38.3929C66.3904 38.9008 65.7611 39.2838 65.3232 39.0223C64.8409 38.8055 64.7916 38.0635 65.2443 37.7855ZM57.4796 38.7967C58.2076 38.5352 59.0723 38.8482 59.4872 39.4972C60.0345 40.2906 59.7433 41.4989 58.8939 41.9542C58.0139 42.4927 56.7288 42.0362 56.4037 41.0534C56.0347 40.1736 56.5723 39.0725 57.4796 38.7967ZM53.2085 38.8833C54.0153 38.5024 55.1011 38.8219 55.4908 39.6472C55.9494 40.4506 55.5948 41.5691 54.7749 41.9839C53.9539 42.4501 52.7958 42.0967 52.3985 41.2342C51.953 40.4002 52.3486 39.2673 53.2085 38.8833ZM48.9318 40.3454C48.9931 39.8256 49.4835 39.4873 49.9782 39.4523C50.5113 39.5166 50.9371 39.9306 50.9951 40.4701C50.9601 41.0042 50.5474 41.5262 49.9815 41.523C49.3588 41.5766 48.8129 40.9571 48.9318 40.3454ZM61.5637 39.5653C62.203 39.1933 63.0906 39.7349 63.0622 40.4693C63.1061 41.2475 62.1236 41.7958 61.4871 41.3394C60.8258 40.9593 60.8774 39.889 61.5637 39.5653ZM51.4703 42.3078C52.218 42.1021 53.0728 42.4545 53.4395 43.1417C53.8412 43.8334 53.677 44.7944 53.0532 45.3017C52.2531 46.0459 50.7774 45.7471 50.3516 44.7315C49.8623 43.8005 50.4567 42.5528 51.4703 42.3078ZM59.5715 42.3039C60.2983 42.096 61.1522 42.3762 61.5429 43.0383C62.0595 43.7956 61.8129 44.9251 61.0438 45.4133C60.2381 45.9802 58.9902 45.6825 58.5469 44.7962C58.0095 43.8793 58.5503 42.5836 59.5715 42.3039ZM46.6616 43.1679C47.3074 42.9236 48.0233 43.6363 47.7617 44.2766C47.6018 44.8599 46.7798 45.0756 46.3551 44.6455C45.8582 44.2416 46.0421 43.343 46.6616 43.1679ZM64.1667 44.0971C64.148 43.562 64.5395 43.0881 65.0883 43.0585C65.5305 43.1286 65.9606 43.4854 65.9256 43.9669C65.9661 44.6028 65.1999 45.0351 64.6581 44.7363C64.4041 44.6072 64.2739 44.3467 64.1667 44.0971ZM43.4861 43.482C43.8747 43.3124 44.3553 43.6492 44.2666 44.0807C44.2457 44.5692 43.5244 44.7571 43.2595 44.3489C43.0253 44.0654 43.1655 43.6282 43.4861 43.482ZM67.9846 43.4723C68.2582 43.2775 68.6971 43.4175 68.8055 43.7371C68.9894 44.0862 68.6523 44.5645 68.2594 44.5055C67.7078 44.5557 67.5293 43.7151 67.9846 43.4723ZM53.5807 45.8175C54.6031 45.5517 55.7021 46.4042 55.7086 47.457C55.7753 48.5208 54.6928 49.4641 53.6463 49.2184C52.8373 49.0882 52.2025 48.3089 52.2288 47.4914C52.2266 46.7096 52.8166 45.9829 53.5807 45.8175ZM57.6297 45.8154C58.6674 45.5253 59.7992 46.3932 59.7827 47.4702C59.8375 48.5143 58.7889 49.4259 57.7642 49.2188C56.7999 49.0941 56.0884 48.0346 56.3576 47.0989C56.4935 46.4753 57.0145 45.9682 57.6297 45.8154ZM49.8229 46.4634C50.541 46.3408 51.2142 47.142 50.923 47.8238C50.7106 48.5503 49.6532 48.7474 49.1857 48.1539C48.6374 47.584 49.0467 46.542 49.8229 46.4634ZM61.6972 46.4954C62.3375 46.2272 63.1234 46.7811 63.0742 47.476C63.0999 48.241 62.1296 48.7685 61.5034 48.322C60.7942 47.9211 60.9233 46.7413 61.6972 46.4954ZM65.0161 49.8244C64.7654 49.357 65.2208 48.7375 65.7397 48.8241C65.998 48.8197 66.1787 49.0232 66.344 49.194C66.378 49.4709 66.4349 49.8013 66.205 50.0148C65.8929 50.4099 65.1857 50.2971 65.0161 49.8244ZM45.9917 48.9542C46.4767 48.6313 47.1746 49.1128 47.0656 49.6798C47.0076 50.1813 46.3759 50.4679 45.9599 50.1833C45.5133 49.925 45.5298 49.1896 45.9917 48.9542ZM55.5729 50.0038C56.2078 49.7237 57.0166 50.2764 56.9565 50.9757C57.0035 51.7484 56.0031 52.2835 55.3824 51.8195C54.6928 51.4211 54.8078 50.2489 55.5729 50.0038ZM51.1353 51.0391C51.676 50.7546 52.4017 51.246 52.3524 51.8512C52.3689 52.3481 51.8839 52.7716 51.3936 52.6982C50.9874 52.6894 50.7225 52.3253 50.5923 51.9791C50.599 51.6017 50.7543 51.1814 51.1353 51.0391ZM60.1242 51.0478C60.6803 50.7042 61.4706 51.1978 61.418 51.845C61.4323 52.5214 60.5391 52.9547 60.0214 52.5103C59.5201 52.162 59.5813 51.3248 60.1242 51.0478ZM61.6874 54.9123C61.44 54.5381 61.7312 54.0872 62.1329 54.0018C62.4559 54.0675 62.7974 54.3104 62.7295 54.6848C62.6824 55.1915 61.9413 55.3469 61.6874 54.9123ZM49.2788 54.5873C49.3773 54.2907 49.6159 53.9959 49.9651 54.073C50.4741 54.1091 50.6252 54.8763 50.1797 55.1128C49.7791 55.3829 49.3143 55.013 49.2788 54.5873ZM55.2652 54.9276C55.3627 54.4888 55.9307 54.2754 56.3051 54.5085C56.5525 54.6147 56.6248 54.8915 56.6883 55.1268C56.6543 55.2493 56.624 55.372 56.5942 55.4945C56.4409 55.6762 56.2439 55.8578 55.9888 55.8513C55.5148 55.9068 55.0872 55.3709 55.2652 54.9276Z" fill="white"/>
</g>
<path d="M97.908 50.168C97.1613 50.168 96.4707 50.0327 95.836 49.762C95.2107 49.4913 94.66 49.1133 94.184 48.628C93.7173 48.1427 93.3533 47.5733 93.092 46.92C92.8307 46.2667 92.7 45.5527 92.7 44.778C92.7 44.0033 92.826 43.2893 93.078 42.636C93.3393 41.9733 93.7033 41.404 94.17 40.928C94.646 40.4427 95.2013 40.0693 95.836 39.808C96.4707 39.5373 97.1613 39.402 97.908 39.402C98.6547 39.402 99.322 39.528 99.91 39.78C100.507 40.032 101.011 40.368 101.422 40.788C101.833 41.1987 102.127 41.6513 102.304 42.146L100.596 42.944C100.4 42.4213 100.069 41.992 99.602 41.656C99.1353 41.3107 98.5707 41.138 97.908 41.138C97.2547 41.138 96.676 41.292 96.172 41.6C95.6773 41.908 95.29 42.3327 95.01 42.874C94.7393 43.4153 94.604 44.05 94.604 44.778C94.604 45.506 94.7393 46.1453 95.01 46.696C95.29 47.2373 95.6773 47.662 96.172 47.97C96.676 48.278 97.2547 48.432 97.908 48.432C98.5707 48.432 99.1353 48.264 99.602 47.928C100.069 47.5827 100.4 47.1487 100.596 46.626L102.304 47.424C102.127 47.9187 101.833 48.376 101.422 48.796C101.011 49.2067 100.507 49.538 99.91 49.79C99.322 50.042 98.6547 50.168 97.908 50.168ZM106.289 50.168C105.757 50.168 105.295 50.0793 104.903 49.902C104.511 49.7247 104.208 49.4727 103.993 49.146C103.778 48.81 103.671 48.4227 103.671 47.984C103.671 47.564 103.764 47.1907 103.951 46.864C104.138 46.528 104.427 46.248 104.819 46.024C105.211 45.8 105.706 45.6413 106.303 45.548L108.795 45.142V46.542L106.653 46.906C106.289 46.9713 106.018 47.088 105.841 47.256C105.664 47.424 105.575 47.6433 105.575 47.914C105.575 48.1753 105.673 48.3853 105.869 48.544C106.074 48.6933 106.326 48.768 106.625 48.768C107.008 48.768 107.344 48.6887 107.633 48.53C107.932 48.362 108.16 48.1333 108.319 47.844C108.487 47.5547 108.571 47.2373 108.571 46.892V44.932C108.571 44.6053 108.44 44.3347 108.179 44.12C107.927 43.896 107.591 43.784 107.171 43.784C106.779 43.784 106.429 43.8913 106.121 44.106C105.822 44.3113 105.603 44.5867 105.463 44.932L103.965 44.204C104.114 43.8027 104.348 43.4573 104.665 43.168C104.992 42.8693 105.374 42.636 105.813 42.468C106.252 42.3 106.728 42.216 107.241 42.216C107.866 42.216 108.417 42.3327 108.893 42.566C109.369 42.79 109.738 43.1073 109.999 43.518C110.27 43.9193 110.405 44.3907 110.405 44.932V50H108.669V48.698L109.061 48.67C108.865 48.9967 108.632 49.272 108.361 49.496C108.09 49.7107 107.782 49.8787 107.437 50C107.092 50.112 106.709 50.168 106.289 50.168ZM112.52 50V42.384H114.242V44.078L114.102 43.826C114.28 43.2567 114.555 42.86 114.928 42.636C115.311 42.412 115.768 42.3 116.3 42.3H116.748V43.924H116.09C115.568 43.924 115.148 44.0873 114.83 44.414C114.513 44.7313 114.354 45.1793 114.354 45.758V50H112.52ZM121.719 50.168C120.981 50.168 120.323 49.9953 119.745 49.65C119.166 49.2953 118.709 48.8147 118.373 48.208C118.037 47.6013 117.869 46.9293 117.869 46.192C117.869 45.4453 118.037 44.7733 118.373 44.176C118.709 43.5787 119.166 43.1027 119.745 42.748C120.333 42.3933 120.986 42.216 121.705 42.216C122.283 42.216 122.797 42.3327 123.245 42.566C123.702 42.79 124.061 43.1073 124.323 43.518L124.043 43.896V39.402H125.877V50H124.141V48.53L124.337 48.894C124.075 49.3047 123.711 49.622 123.245 49.846C122.778 50.0607 122.269 50.168 121.719 50.168ZM121.915 48.488C122.335 48.488 122.703 48.39 123.021 48.194C123.338 47.998 123.585 47.7273 123.763 47.382C123.949 47.0367 124.043 46.64 124.043 46.192C124.043 45.7533 123.949 45.3613 123.763 45.016C123.585 44.6613 123.338 44.386 123.021 44.19C122.703 43.994 122.335 43.896 121.915 43.896C121.504 43.896 121.135 43.9987 120.809 44.204C120.482 44.4 120.225 44.6707 120.039 45.016C119.861 45.352 119.773 45.744 119.773 46.192C119.773 46.64 119.861 47.0367 120.039 47.382C120.225 47.7273 120.482 47.998 120.809 48.194C121.135 48.39 121.504 48.488 121.915 48.488ZM130.313 50.168C129.781 50.168 129.319 50.0793 128.927 49.902C128.535 49.7247 128.231 49.4727 128.017 49.146C127.802 48.81 127.695 48.4227 127.695 47.984C127.695 47.564 127.788 47.1907 127.975 46.864C128.161 46.528 128.451 46.248 128.843 46.024C129.235 45.8 129.729 45.6413 130.327 45.548L132.819 45.142V46.542L130.677 46.906C130.313 46.9713 130.042 47.088 129.865 47.256C129.687 47.424 129.599 47.6433 129.599 47.914C129.599 48.1753 129.697 48.3853 129.893 48.544C130.098 48.6933 130.35 48.768 130.649 48.768C131.031 48.768 131.367 48.6887 131.657 48.53C131.955 48.362 132.184 48.1333 132.343 47.844C132.511 47.5547 132.595 47.2373 132.595 46.892V44.932C132.595 44.6053 132.464 44.3347 132.203 44.12C131.951 43.896 131.615 43.784 131.195 43.784C130.803 43.784 130.453 43.8913 130.145 44.106C129.846 44.3113 129.627 44.5867 129.487 44.932L127.989 44.204C128.138 43.8027 128.371 43.4573 128.689 43.168C129.015 42.8693 129.398 42.636 129.837 42.468C130.275 42.3 130.751 42.216 131.265 42.216C131.89 42.216 132.441 42.3327 132.917 42.566C133.393 42.79 133.761 43.1073 134.023 43.518C134.293 43.9193 134.429 44.3907 134.429 44.932V50H132.693V48.698L133.085 48.67C132.889 48.9967 132.655 49.272 132.385 49.496C132.114 49.7107 131.806 49.8787 131.461 50C131.115 50.112 130.733 50.168 130.313 50.168ZM136.544 50V42.384H138.266V43.882L138.126 43.616C138.303 43.1587 138.593 42.8133 138.994 42.58C139.405 42.3373 139.881 42.216 140.422 42.216C140.982 42.216 141.477 42.3373 141.906 42.58C142.345 42.8227 142.685 43.1633 142.928 43.602C143.171 44.0313 143.292 44.5307 143.292 45.1V50H141.458V45.534C141.458 45.198 141.393 44.9087 141.262 44.666C141.131 44.4233 140.949 44.2367 140.716 44.106C140.492 43.966 140.226 43.896 139.918 43.896C139.619 43.896 139.353 43.966 139.12 44.106C138.887 44.2367 138.705 44.4233 138.574 44.666C138.443 44.9087 138.378 45.198 138.378 45.534V50H136.544ZM148.987 50.168C148.24 50.168 147.559 49.9953 146.943 49.65C146.336 49.3047 145.851 48.8333 145.487 48.236C145.132 47.6387 144.955 46.9573 144.955 46.192C144.955 45.4267 145.132 44.7453 145.487 44.148C145.851 43.5507 146.336 43.0793 146.943 42.734C147.549 42.3887 148.231 42.216 148.987 42.216C149.733 42.216 150.41 42.3887 151.017 42.734C151.623 43.0793 152.104 43.5507 152.459 44.148C152.823 44.736 153.005 45.4173 153.005 46.192C153.005 46.9573 152.823 47.6387 152.459 48.236C152.095 48.8333 151.609 49.3047 151.003 49.65C150.396 49.9953 149.724 50.168 148.987 50.168ZM148.987 48.488C149.397 48.488 149.757 48.39 150.065 48.194C150.382 47.998 150.629 47.7273 150.807 47.382C150.993 47.0273 151.087 46.6307 151.087 46.192C151.087 45.744 150.993 45.352 150.807 45.016C150.629 44.6707 150.382 44.4 150.065 44.204C149.757 43.9987 149.397 43.896 148.987 43.896C148.567 43.896 148.198 43.9987 147.881 44.204C147.563 44.4 147.311 44.6707 147.125 45.016C146.947 45.352 146.859 45.744 146.859 46.192C146.859 46.6307 146.947 47.0273 147.125 47.382C147.311 47.7273 147.563 47.998 147.881 48.194C148.198 48.39 148.567 48.488 148.987 48.488Z" fill="#021825"/>
</g>
<defs>
<filter id="filter0_d_175_6875" x="0" y="-4" width="199" height="96" filterUnits="userSpaceOnUse" color-interpolation-filters="sRGB">
<feFlood flood-opacity="0" result="BackgroundImageFix"/>
<feColorMatrix in="SourceAlpha" type="matrix" values="0 0 0 0 0 0 0 0 0 0 0 0 0 0 0 0 0 0 127 0" result="hardAlpha"/>
<feOffset/>
<feGaussianBlur stdDeviation="6"/>
<feComposite in2="hardAlpha" operator="out"/>
<feColorMatrix type="matrix" values="0 0 0 0 0 0 0 0 0 0 0 0 0 0 0 0 0 0 0.1 0"/>
<feBlend mode="normal" in2="BackgroundImageFix" result="effect1_dropShadow_175_6875"/>
<feBlend mode="normal" in="SourceGraphic" in2="effect1_dropShadow_175_6875" result="shape"/>
</filter>
</defs>
</svg>
