<svg width="199" height="88" viewBox="0 0 199 88" fill="none" xmlns="http://www.w3.org/2000/svg">
<g filter="url(#filter0_d_175_6880)">
<rect x="12" y="8" width="175" height="72" rx="8" fill="white" shape-rendering="crispEdges"/>
<g style="mix-blend-mode:luminosity" opacity="0.5">
<circle cx="56" cy="44" r="20" fill="#E9E9E9"/>
<path d="M55.9987 31.1429L55.8218 31.7289V48.7318L55.9987 48.9039L64.0903 44.2386L55.9987 31.1429Z" fill="#343434"/>
<path d="M55.9967 31.1429L47.9048 44.2386L55.9967 48.9039V40.6511V31.1429Z" fill="#8C8C8C"/>
<path d="M55.9986 50.3981L55.8989 50.5166V56.5733L55.9986 56.8572L64.0953 45.7352L55.9986 50.3981Z" fill="#3C3C3B"/>
<path d="M55.9967 56.8572V50.3981L47.9048 45.7352L55.9967 56.8572Z" fill="#8C8C8C"/>
<path d="M55.9956 48.9036L64.0873 44.2383L55.9956 40.6509V48.9036Z" fill="#141414"/>
<path d="M47.9048 44.2383L55.9967 48.9036V40.6509L47.9048 44.2383Z" fill="#393939"/>
</g>
<path d="M93.008 50V39.57H99.938V41.25H94.912V43.924H99.658V45.604H94.912V48.32H99.938V50H93.008ZM105.072 50.084C104.214 50.084 103.546 49.8507 103.07 49.384C102.604 48.908 102.37 48.2407 102.37 47.382V44.022H101.054V42.384H101.194C101.568 42.384 101.857 42.286 102.062 42.09C102.268 41.894 102.37 41.6093 102.37 41.236V40.648H104.204V42.384H105.954V44.022H104.204V47.284C104.204 47.536 104.246 47.7507 104.33 47.928C104.424 48.1053 104.564 48.2407 104.75 48.334C104.946 48.4273 105.194 48.474 105.492 48.474C105.558 48.474 105.632 48.4693 105.716 48.46C105.81 48.4507 105.898 48.4413 105.982 48.432V50C105.852 50.0187 105.702 50.0373 105.534 50.056C105.366 50.0747 105.212 50.084 105.072 50.084ZM107.803 50V39.402H109.637V43.882L109.385 43.616C109.563 43.1587 109.852 42.8133 110.253 42.58C110.664 42.3373 111.14 42.216 111.681 42.216C112.241 42.216 112.736 42.3373 113.165 42.58C113.604 42.8227 113.945 43.1633 114.187 43.602C114.43 44.0313 114.551 44.5307 114.551 45.1V50H112.717V45.534C112.717 45.198 112.652 44.9087 112.521 44.666C112.391 44.4233 112.209 44.2367 111.975 44.106C111.751 43.966 111.485 43.896 111.177 43.896C110.879 43.896 110.613 43.966 110.379 44.106C110.146 44.2367 109.964 44.4233 109.833 44.666C109.703 44.9087 109.637 45.198 109.637 45.534V50H107.803ZM120.134 50.168C119.35 50.168 118.664 49.9907 118.076 49.636C117.488 49.2813 117.031 48.8007 116.704 48.194C116.378 47.5873 116.214 46.9153 116.214 46.178C116.214 45.4127 116.378 44.736 116.704 44.148C117.04 43.5507 117.493 43.0793 118.062 42.734C118.641 42.3887 119.285 42.216 119.994 42.216C120.592 42.216 121.114 42.314 121.562 42.51C122.02 42.706 122.407 42.9767 122.724 43.322C123.042 43.6673 123.284 44.064 123.452 44.512C123.62 44.9507 123.704 45.4267 123.704 45.94C123.704 46.0707 123.695 46.206 123.676 46.346C123.667 46.486 123.644 46.6073 123.606 46.71H117.726V45.31H122.57L121.702 45.968C121.786 45.5387 121.763 45.156 121.632 44.82C121.511 44.484 121.306 44.218 121.016 44.022C120.736 43.826 120.396 43.728 119.994 43.728C119.612 43.728 119.271 43.826 118.972 44.022C118.674 44.2087 118.445 44.4887 118.286 44.862C118.137 45.226 118.081 45.6693 118.118 46.192C118.081 46.6587 118.142 47.074 118.3 47.438C118.468 47.7927 118.711 48.068 119.028 48.264C119.355 48.46 119.728 48.558 120.148 48.558C120.568 48.558 120.923 48.4693 121.212 48.292C121.511 48.1147 121.744 47.8767 121.912 47.578L123.396 48.306C123.247 48.67 123.014 48.992 122.696 49.272C122.379 49.552 122.001 49.7713 121.562 49.93C121.133 50.0887 120.657 50.168 120.134 50.168ZM125.514 50V42.384H127.236V44.078L127.096 43.826C127.274 43.2567 127.549 42.86 127.922 42.636C128.305 42.412 128.762 42.3 129.294 42.3H129.742V43.924H129.084C128.562 43.924 128.142 44.0873 127.824 44.414C127.507 44.7313 127.348 45.1793 127.348 45.758V50H125.514ZM134.783 50.168C133.999 50.168 133.313 49.9907 132.725 49.636C132.137 49.2813 131.679 48.8007 131.353 48.194C131.026 47.5873 130.863 46.9153 130.863 46.178C130.863 45.4127 131.026 44.736 131.353 44.148C131.689 43.5507 132.141 43.0793 132.711 42.734C133.289 42.3887 133.933 42.216 134.643 42.216C135.24 42.216 135.763 42.314 136.211 42.51C136.668 42.706 137.055 42.9767 137.373 43.322C137.69 43.6673 137.933 44.064 138.101 44.512C138.269 44.9507 138.353 45.4267 138.353 45.94C138.353 46.0707 138.343 46.206 138.325 46.346C138.315 46.486 138.292 46.6073 138.255 46.71H132.375V45.31H137.219L136.351 45.968C136.435 45.5387 136.411 45.156 136.281 44.82C136.159 44.484 135.954 44.218 135.665 44.022C135.385 43.826 135.044 43.728 134.643 43.728C134.26 43.728 133.919 43.826 133.621 44.022C133.322 44.2087 133.093 44.4887 132.935 44.862C132.785 45.226 132.729 45.6693 132.767 46.192C132.729 46.6587 132.79 47.074 132.949 47.438C133.117 47.7927 133.359 48.068 133.677 48.264C134.003 48.46 134.377 48.558 134.797 48.558C135.217 48.558 135.571 48.4693 135.861 48.292C136.159 48.1147 136.393 47.8767 136.561 47.578L138.045 48.306C137.895 48.67 137.662 48.992 137.345 49.272C137.027 49.552 136.649 49.7713 136.211 49.93C135.781 50.0887 135.305 50.168 134.783 50.168ZM142.879 50.168C142.291 50.168 141.778 50.0373 141.339 49.776C140.91 49.5147 140.578 49.1507 140.345 48.684C140.121 48.2173 140.009 47.6713 140.009 47.046V42.384H141.843V46.892C141.843 47.2093 141.904 47.4893 142.025 47.732C142.156 47.9653 142.338 48.152 142.571 48.292C142.814 48.4227 143.084 48.488 143.383 48.488C143.682 48.488 143.948 48.4227 144.181 48.292C144.414 48.152 144.596 47.9607 144.727 47.718C144.858 47.4753 144.923 47.186 144.923 46.85V42.384H146.757V50H145.021V48.502L145.175 48.768C144.998 49.2347 144.704 49.5847 144.293 49.818C143.892 50.0513 143.42 50.168 142.879 50.168ZM148.882 50V42.384H150.604V44.148L150.408 43.854C150.548 43.3033 150.828 42.8927 151.248 42.622C151.668 42.3513 152.163 42.216 152.732 42.216C153.357 42.216 153.908 42.3793 154.384 42.706C154.86 43.0327 155.168 43.462 155.308 43.994L154.79 44.036C155.023 43.4293 155.373 42.9767 155.84 42.678C156.307 42.37 156.843 42.216 157.45 42.216C157.991 42.216 158.472 42.3373 158.892 42.58C159.321 42.8227 159.657 43.1633 159.9 43.602C160.143 44.0313 160.264 44.5307 160.264 45.1V50H158.43V45.534C158.43 45.198 158.369 44.9087 158.248 44.666C158.127 44.4233 157.959 44.2367 157.744 44.106C157.529 43.966 157.268 43.896 156.96 43.896C156.671 43.896 156.414 43.966 156.19 44.106C155.966 44.2367 155.793 44.4233 155.672 44.666C155.551 44.9087 155.49 45.198 155.49 45.534V50H153.656V45.534C153.656 45.198 153.595 44.9087 153.474 44.666C153.353 44.4233 153.18 44.2367 152.956 44.106C152.741 43.966 152.485 43.896 152.186 43.896C151.897 43.896 151.64 43.966 151.416 44.106C151.192 44.2367 151.019 44.4233 150.898 44.666C150.777 44.9087 150.716 45.198 150.716 45.534V50H148.882Z" fill="#021825"/>
</g>
<defs>
<filter id="filter0_d_175_6880" x="0" y="-4" width="199" height="96" filterUnits="userSpaceOnUse" color-interpolation-filters="sRGB">
<feFlood flood-opacity="0" result="BackgroundImageFix"/>
<feColorMatrix in="SourceAlpha" type="matrix" values="0 0 0 0 0 0 0 0 0 0 0 0 0 0 0 0 0 0 127 0" result="hardAlpha"/>
<feOffset/>
<feGaussianBlur stdDeviation="6"/>
<feComposite in2="hardAlpha" operator="out"/>
<feColorMatrix type="matrix" values="0 0 0 0 0 0 0 0 0 0 0 0 0 0 0 0 0 0 0.1 0"/>
<feBlend mode="normal" in2="BackgroundImageFix" result="effect1_dropShadow_175_6880"/>
<feBlend mode="normal" in="SourceGraphic" in2="effect1_dropShadow_175_6880" result="shape"/>
</filter>
</defs>
</svg>
