<svg width="199" height="88" viewBox="0 0 199 88" fill="none" xmlns="http://www.w3.org/2000/svg">
<g filter="url(#filter0_d_175_6891)">
<rect x="12" y="8" width="175" height="72" rx="8" fill="white" shape-rendering="crispEdges"/>
<g style="mix-blend-mode:luminosity" opacity="0.5">
<g clip-path="url(#clip0_175_6891)">
<path d="M56 64C67.0457 64 76 55.0457 76 44C76 32.9543 67.0457 24 56 24C44.9543 24 36 32.9543 36 44C36 55.0457 44.9543 64 56 64Z" fill="#13B5EC"/>
<path fill-rule="evenodd" clip-rule="evenodd" d="M57.5 40.125L62 37.5V42.75L57.5 40.125ZM62 51.375L56 54.875L50 51.375V45.25L56 48.75L62 45.25V51.375ZM50 37.5L54.5 40.125L50 42.75V37.5ZM56.75 41.375L61.25 44L56.75 46.625V41.375ZM55.25 46.625L50.75 44L55.25 41.375V46.625ZM61.25 36.25L56 39.25L50.75 36.25L56 33.125L61.25 36.25ZM48.5 35.75V52.125L56 56.375L63.5 52.125V35.75L56 31.5L48.5 35.75Z" fill="white"/>
</g>
</g>
<path d="M93.008 50V39.57H99.966V41.25H94.912V44.134H99.336V45.814H94.912V50H93.008ZM103.473 50.168C102.941 50.168 102.479 50.0793 102.087 49.902C101.695 49.7247 101.391 49.4727 101.177 49.146C100.962 48.81 100.855 48.4227 100.855 47.984C100.855 47.564 100.948 47.1907 101.135 46.864C101.321 46.528 101.611 46.248 102.003 46.024C102.395 45.8 102.889 45.6413 103.487 45.548L105.979 45.142V46.542L103.837 46.906C103.473 46.9713 103.202 47.088 103.025 47.256C102.847 47.424 102.759 47.6433 102.759 47.914C102.759 48.1753 102.857 48.3853 103.053 48.544C103.258 48.6933 103.51 48.768 103.809 48.768C104.191 48.768 104.527 48.6887 104.817 48.53C105.115 48.362 105.344 48.1333 105.503 47.844C105.671 47.5547 105.755 47.2373 105.755 46.892V44.932C105.755 44.6053 105.624 44.3347 105.363 44.12C105.111 43.896 104.775 43.784 104.355 43.784C103.963 43.784 103.613 43.8913 103.305 44.106C103.006 44.3113 102.787 44.5867 102.647 44.932L101.149 44.204C101.298 43.8027 101.531 43.4573 101.849 43.168C102.175 42.8693 102.558 42.636 102.997 42.468C103.435 42.3 103.911 42.216 104.425 42.216C105.05 42.216 105.601 42.3327 106.077 42.566C106.553 42.79 106.921 43.1073 107.183 43.518C107.453 43.9193 107.589 44.3907 107.589 44.932V50H105.853V48.698L106.245 48.67C106.049 48.9967 105.815 49.272 105.545 49.496C105.274 49.7107 104.966 49.8787 104.621 50C104.275 50.112 103.893 50.168 103.473 50.168ZM109.704 50V42.384H111.426V43.882L111.286 43.616C111.463 43.1587 111.752 42.8133 112.154 42.58C112.564 42.3373 113.04 42.216 113.582 42.216C114.142 42.216 114.636 42.3373 115.066 42.58C115.504 42.8227 115.845 43.1633 116.088 43.602C116.33 44.0313 116.452 44.5307 116.452 45.1V50H114.618V45.534C114.618 45.198 114.552 44.9087 114.422 44.666C114.291 44.4233 114.109 44.2367 113.876 44.106C113.652 43.966 113.386 43.896 113.078 43.896C112.779 43.896 112.513 43.966 112.28 44.106C112.046 44.2367 111.864 44.4233 111.734 44.666C111.603 44.9087 111.538 45.198 111.538 45.534V50H109.704ZM121.895 50.084C121.036 50.084 120.369 49.8507 119.893 49.384C119.426 48.908 119.193 48.2407 119.193 47.382V44.022H117.877V42.384H118.017C118.39 42.384 118.679 42.286 118.885 42.09C119.09 41.894 119.193 41.6093 119.193 41.236V40.648H121.027V42.384H122.777V44.022H121.027V47.284C121.027 47.536 121.069 47.7507 121.153 47.928C121.246 48.1053 121.386 48.2407 121.573 48.334C121.769 48.4273 122.016 48.474 122.315 48.474C122.38 48.474 122.455 48.4693 122.539 48.46C122.632 48.4507 122.721 48.4413 122.805 48.432V50C122.674 50.0187 122.525 50.0373 122.357 50.056C122.189 50.0747 122.035 50.084 121.895 50.084ZM128.281 50.168C127.535 50.168 126.853 49.9953 126.237 49.65C125.631 49.3047 125.145 48.8333 124.781 48.236C124.427 47.6387 124.249 46.9573 124.249 46.192C124.249 45.4267 124.427 44.7453 124.781 44.148C125.145 43.5507 125.631 43.0793 126.237 42.734C126.844 42.3887 127.525 42.216 128.281 42.216C129.028 42.216 129.705 42.3887 130.311 42.734C130.918 43.0793 131.399 43.5507 131.753 44.148C132.117 44.736 132.299 45.4173 132.299 46.192C132.299 46.9573 132.117 47.6387 131.753 48.236C131.389 48.8333 130.904 49.3047 130.297 49.65C129.691 49.9953 129.019 50.168 128.281 50.168ZM128.281 48.488C128.692 48.488 129.051 48.39 129.359 48.194C129.677 47.998 129.924 47.7273 130.101 47.382C130.288 47.0273 130.381 46.6307 130.381 46.192C130.381 45.744 130.288 45.352 130.101 45.016C129.924 44.6707 129.677 44.4 129.359 44.204C129.051 43.9987 128.692 43.896 128.281 43.896C127.861 43.896 127.493 43.9987 127.175 44.204C126.858 44.4 126.606 44.6707 126.419 45.016C126.242 45.352 126.153 45.744 126.153 46.192C126.153 46.6307 126.242 47.0273 126.419 47.382C126.606 47.7273 126.858 47.998 127.175 48.194C127.493 48.39 127.861 48.488 128.281 48.488ZM134.11 50V42.384H135.832V44.148L135.636 43.854C135.776 43.3033 136.056 42.8927 136.476 42.622C136.896 42.3513 137.391 42.216 137.96 42.216C138.586 42.216 139.136 42.3793 139.612 42.706C140.088 43.0327 140.396 43.462 140.536 43.994L140.018 44.036C140.252 43.4293 140.602 42.9767 141.068 42.678C141.535 42.37 142.072 42.216 142.678 42.216C143.22 42.216 143.7 42.3373 144.12 42.58C144.55 42.8227 144.886 43.1633 145.128 43.602C145.371 44.0313 145.492 44.5307 145.492 45.1V50H143.658V45.534C143.658 45.198 143.598 44.9087 143.476 44.666C143.355 44.4233 143.187 44.2367 142.972 44.106C142.758 43.966 142.496 43.896 142.188 43.896C141.899 43.896 141.642 43.966 141.418 44.106C141.194 44.2367 141.022 44.4233 140.9 44.666C140.779 44.9087 140.718 45.198 140.718 45.534V50H138.884V45.534C138.884 45.198 138.824 44.9087 138.702 44.666C138.581 44.4233 138.408 44.2367 138.184 44.106C137.97 43.966 137.713 43.896 137.414 43.896C137.125 43.896 136.868 43.966 136.644 44.106C136.42 44.2367 136.248 44.4233 136.126 44.666C136.005 44.9087 135.944 45.198 135.944 45.534V50H134.11Z" fill="#021825"/>
</g>
<defs>
<filter id="filter0_d_175_6891" x="0" y="-4" width="199" height="96" filterUnits="userSpaceOnUse" color-interpolation-filters="sRGB">
<feFlood flood-opacity="0" result="BackgroundImageFix"/>
<feColorMatrix in="SourceAlpha" type="matrix" values="0 0 0 0 0 0 0 0 0 0 0 0 0 0 0 0 0 0 127 0" result="hardAlpha"/>
<feOffset/>
<feGaussianBlur stdDeviation="6"/>
<feComposite in2="hardAlpha" operator="out"/>
<feColorMatrix type="matrix" values="0 0 0 0 0 0 0 0 0 0 0 0 0 0 0 0 0 0 0.1 0"/>
<feBlend mode="normal" in2="BackgroundImageFix" result="effect1_dropShadow_175_6891"/>
<feBlend mode="normal" in="SourceGraphic" in2="effect1_dropShadow_175_6891" result="shape"/>
</filter>
<clipPath id="clip0_175_6891">
<rect width="40" height="40" fill="white" transform="translate(36 24)"/>
</clipPath>
</defs>
</svg>
