<svg width="199" height="88" viewBox="0 0 199 88" fill="none" xmlns="http://www.w3.org/2000/svg">
<g filter="url(#filter0_d_175_6900)">
<rect x="12" y="8" width="175" height="72" rx="8" fill="white" shape-rendering="crispEdges"/>
<g style="mix-blend-mode:luminosity" opacity="0.5">
<circle cx="56" cy="44" r="20" fill="#E9E9E9"/>
<g clip-path="url(#clip0_175_6900)">
<path d="M62.2331 39.9036C61.7953 39.6534 61.2324 39.6534 60.732 39.9036L57.2295 41.9675L54.8529 43.281L51.4129 45.3449C50.9751 45.5951 50.4122 45.5951 49.9118 45.3449L47.2224 43.7188C46.7846 43.4686 46.4719 42.9682 46.4719 42.4053V39.2781C46.4719 38.7778 46.7221 38.2774 47.2224 37.9647L49.9118 36.4011C50.3497 36.1509 50.9126 36.1509 51.4129 36.4011L54.1023 38.0272C54.5401 38.2774 54.8529 38.7778 54.8529 39.3407V41.4046L57.2295 40.0287V37.9021C57.2295 37.4018 56.9794 36.9014 56.479 36.5887L51.4755 33.6491C51.0376 33.3989 50.4747 33.3989 49.9744 33.6491L44.8457 36.6513C44.3454 36.9014 44.0952 37.4018 44.0952 37.9021V43.7813C44.0952 44.2817 44.3454 44.782 44.8457 45.0947L49.9118 48.0343C50.3497 48.2845 50.9126 48.2845 51.4129 48.0343L54.8529 46.0329L57.2295 44.6569L60.6695 42.6555C61.1073 42.4053 61.6702 42.4053 62.1706 42.6555L64.86 44.2191C65.2978 44.4693 65.6105 44.9697 65.6105 45.5326V48.6598C65.6105 49.1601 65.3603 49.6605 64.86 49.9732L62.2331 51.5368C61.7953 51.787 61.2324 51.787 60.732 51.5368L58.0426 49.9732C57.6048 49.723 57.2921 49.2227 57.2921 48.6598V46.6584L54.9154 48.0343V50.0983C54.9154 50.5987 55.1656 51.099 55.6659 51.4117L60.732 54.3513C61.1698 54.6015 61.7327 54.6015 62.2331 54.3513L67.2992 51.4117C67.737 51.1616 68.0497 50.6612 68.0497 50.0983V44.1566C68.0497 43.6562 67.7995 43.1559 67.2992 42.8432L62.2331 39.9036Z" fill="#8247E5"/>
</g>
</g>
<path d="M93.008 50V39.57H96.9C97.6093 39.57 98.2347 39.7007 98.776 39.962C99.3267 40.214 99.756 40.5873 100.064 41.082C100.372 41.5673 100.526 42.16 100.526 42.86C100.526 43.5507 100.367 44.1433 100.05 44.638C99.742 45.1233 99.3173 45.4967 98.776 45.758C98.2347 46.0193 97.6093 46.15 96.9 46.15H94.912V50H93.008ZM94.912 44.47H96.928C97.2733 44.47 97.572 44.4047 97.824 44.274C98.076 44.134 98.272 43.9427 98.412 43.7C98.552 43.4573 98.622 43.1773 98.622 42.86C98.622 42.5333 98.552 42.2533 98.412 42.02C98.272 41.7773 98.076 41.5907 97.824 41.46C97.572 41.32 97.2733 41.25 96.928 41.25H94.912V44.47ZM105.803 50.168C105.056 50.168 104.375 49.9953 103.759 49.65C103.152 49.3047 102.667 48.8333 102.303 48.236C101.948 47.6387 101.771 46.9573 101.771 46.192C101.771 45.4267 101.948 44.7453 102.303 44.148C102.667 43.5507 103.152 43.0793 103.759 42.734C104.365 42.3887 105.047 42.216 105.803 42.216C106.549 42.216 107.226 42.3887 107.833 42.734C108.439 43.0793 108.92 43.5507 109.275 44.148C109.639 44.736 109.821 45.4173 109.821 46.192C109.821 46.9573 109.639 47.6387 109.275 48.236C108.911 48.8333 108.425 49.3047 107.819 49.65C107.212 49.9953 106.54 50.168 105.803 50.168ZM105.803 48.488C106.213 48.488 106.573 48.39 106.881 48.194C107.198 47.998 107.445 47.7273 107.623 47.382C107.809 47.0273 107.903 46.6307 107.903 46.192C107.903 45.744 107.809 45.352 107.623 45.016C107.445 44.6707 107.198 44.4 106.881 44.204C106.573 43.9987 106.213 43.896 105.803 43.896C105.383 43.896 105.014 43.9987 104.697 44.204C104.379 44.4 104.127 44.6707 103.941 45.016C103.763 45.352 103.675 45.744 103.675 46.192C103.675 46.6307 103.763 47.0273 103.941 47.382C104.127 47.7273 104.379 47.998 104.697 48.194C105.014 48.39 105.383 48.488 105.803 48.488ZM111.632 50V39.402H113.466V50H111.632ZM116.503 53.094C116.298 53.094 116.097 53.0753 115.901 53.038C115.705 53.01 115.528 52.9587 115.369 52.884V51.344C115.49 51.372 115.635 51.4 115.803 51.428C115.98 51.456 116.144 51.47 116.293 51.47C116.713 51.47 117.016 51.372 117.203 51.176C117.399 50.98 117.572 50.7233 117.721 50.406L118.225 49.23L118.197 50.77L114.879 42.384H116.853L119.177 48.572H118.477L120.787 42.384H122.775L119.457 50.77C119.261 51.2647 119.023 51.6847 118.743 52.03C118.463 52.3753 118.136 52.6367 117.763 52.814C117.399 53.0007 116.979 53.094 116.503 53.094ZM127.761 53.08C127.192 53.08 126.665 52.9867 126.179 52.8C125.694 52.6133 125.274 52.352 124.919 52.016C124.574 51.6893 124.322 51.302 124.163 50.854L125.871 50.21C125.983 50.5647 126.203 50.8493 126.529 51.064C126.865 51.288 127.276 51.4 127.761 51.4C128.135 51.4 128.461 51.33 128.741 51.19C129.031 51.05 129.255 50.8447 129.413 50.574C129.572 50.3127 129.651 49.9953 129.651 49.622V47.886L130.001 48.306C129.74 48.7633 129.39 49.1087 128.951 49.342C128.513 49.5753 128.013 49.692 127.453 49.692C126.744 49.692 126.109 49.5287 125.549 49.202C124.989 48.8753 124.551 48.4273 124.233 47.858C123.916 47.2887 123.757 46.6493 123.757 45.94C123.757 45.2213 123.916 44.582 124.233 44.022C124.551 43.462 124.985 43.0233 125.535 42.706C126.086 42.3793 126.711 42.216 127.411 42.216C127.981 42.216 128.48 42.3373 128.909 42.58C129.348 42.8133 129.712 43.154 130.001 43.602L129.749 44.064V42.384H131.485V49.622C131.485 50.2847 131.322 50.8773 130.995 51.4C130.678 51.9227 130.239 52.3333 129.679 52.632C129.129 52.9307 128.489 53.08 127.761 53.08ZM127.677 47.998C128.069 47.998 128.41 47.914 128.699 47.746C128.998 47.5687 129.231 47.326 129.399 47.018C129.567 46.71 129.651 46.3553 129.651 45.954C129.651 45.562 129.563 45.212 129.385 44.904C129.217 44.5867 128.984 44.3393 128.685 44.162C128.396 43.9847 128.06 43.896 127.677 43.896C127.295 43.896 126.949 43.9847 126.641 44.162C126.333 44.3393 126.091 44.5867 125.913 44.904C125.745 45.212 125.661 45.562 125.661 45.954C125.661 46.346 125.745 46.696 125.913 47.004C126.091 47.312 126.329 47.5547 126.627 47.732C126.935 47.9093 127.285 47.998 127.677 47.998ZM137.342 50.168C136.595 50.168 135.914 49.9953 135.298 49.65C134.691 49.3047 134.206 48.8333 133.842 48.236C133.487 47.6387 133.31 46.9573 133.31 46.192C133.31 45.4267 133.487 44.7453 133.842 44.148C134.206 43.5507 134.691 43.0793 135.298 42.734C135.905 42.3887 136.586 42.216 137.342 42.216C138.089 42.216 138.765 42.3887 139.372 42.734C139.979 43.0793 140.459 43.5507 140.814 44.148C141.178 44.736 141.36 45.4173 141.36 46.192C141.36 46.9573 141.178 47.6387 140.814 48.236C140.45 48.8333 139.965 49.3047 139.358 49.65C138.751 49.9953 138.079 50.168 137.342 50.168ZM137.342 48.488C137.753 48.488 138.112 48.39 138.42 48.194C138.737 47.998 138.985 47.7273 139.162 47.382C139.349 47.0273 139.442 46.6307 139.442 46.192C139.442 45.744 139.349 45.352 139.162 45.016C138.985 44.6707 138.737 44.4 138.42 44.204C138.112 43.9987 137.753 43.896 137.342 43.896C136.922 43.896 136.553 43.9987 136.236 44.204C135.919 44.4 135.667 44.6707 135.48 45.016C135.303 45.352 135.214 45.744 135.214 46.192C135.214 46.6307 135.303 47.0273 135.48 47.382C135.667 47.7273 135.919 47.998 136.236 48.194C136.553 48.39 136.922 48.488 137.342 48.488ZM143.171 50V42.384H144.893V43.882L144.753 43.616C144.93 43.1587 145.22 42.8133 145.621 42.58C146.032 42.3373 146.508 42.216 147.049 42.216C147.609 42.216 148.104 42.3373 148.533 42.58C148.972 42.8227 149.312 43.1633 149.555 43.602C149.798 44.0313 149.919 44.5307 149.919 45.1V50H148.085V45.534C148.085 45.198 148.02 44.9087 147.889 44.666C147.758 44.4233 147.576 44.2367 147.343 44.106C147.119 43.966 146.853 43.896 146.545 43.896C146.246 43.896 145.98 43.966 145.747 44.106C145.514 44.2367 145.332 44.4233 145.201 44.666C145.07 44.9087 145.005 45.198 145.005 45.534V50H143.171Z" fill="#021825"/>
</g>
<defs>
<filter id="filter0_d_175_6900" x="0" y="-4" width="199" height="96" filterUnits="userSpaceOnUse" color-interpolation-filters="sRGB">
<feFlood flood-opacity="0" result="BackgroundImageFix"/>
<feColorMatrix in="SourceAlpha" type="matrix" values="0 0 0 0 0 0 0 0 0 0 0 0 0 0 0 0 0 0 127 0" result="hardAlpha"/>
<feOffset/>
<feGaussianBlur stdDeviation="6"/>
<feComposite in2="hardAlpha" operator="out"/>
<feColorMatrix type="matrix" values="0 0 0 0 0 0 0 0 0 0 0 0 0 0 0 0 0 0 0.1 0"/>
<feBlend mode="normal" in2="BackgroundImageFix" result="effect1_dropShadow_175_6900"/>
<feBlend mode="normal" in="SourceGraphic" in2="effect1_dropShadow_175_6900" result="shape"/>
</filter>
<clipPath id="clip0_175_6900">
<rect width="24.0171" height="20.9524" fill="white" transform="translate(44.0952 33.5238)"/>
</clipPath>
</defs>
</svg>
