<svg width="1622" height="712" viewBox="0 0 1622 712" fill="none" xmlns="http://www.w3.org/2000/svg">
<g clip-path="url(#clip0_697_556)">
<path d="M424.968 202.604H333.655C316.375 202.604 300.972 213.498 295.214 229.79L269.722 301.928C263.472 319.614 276.592 338.164 295.349 338.164H463.273C482.031 338.164 495.15 319.614 488.9 301.928L463.408 229.79C457.65 213.498 442.247 202.604 424.968 202.604Z" fill="#D69900" stroke="#D69900" stroke-width="3.39748" stroke-linecap="round"/>
<path d="M432.3 237.987L299.556 307.756H464.503L437.031 239.722C436.278 237.858 434.08 237.051 432.3 237.987Z" fill="white" stroke="white" stroke-width="3.39748" stroke-linecap="round"/>
<path d="M288.049 373.838H196.736C179.456 373.838 164.054 384.731 158.296 401.024L132.804 473.161C126.554 490.847 139.673 509.397 158.43 509.397H326.355C345.112 509.397 358.231 490.847 351.982 473.161L326.489 401.024C320.732 384.731 305.329 373.838 288.049 373.838Z" fill="#D69900" stroke="#D69900" stroke-width="3.39748" stroke-linecap="round"/>
<path d="M295.381 409.22L162.637 478.99H327.584L300.112 410.955C299.359 409.091 297.161 408.285 295.381 409.22Z" fill="white" stroke="white" stroke-width="3.39748" stroke-linecap="round"/>
<path d="M555.261 373.838H463.948C446.669 373.838 431.266 384.731 425.508 401.024L400.016 473.161C393.766 490.847 406.885 509.397 425.643 509.397H593.567C612.324 509.397 625.444 490.847 619.194 473.161L593.702 401.024C587.944 384.731 572.541 373.838 555.261 373.838Z" fill="#D69900" stroke="#D69900" stroke-width="3.39748" stroke-linecap="round"/>
<path d="M562.593 409.22L429.849 478.99H594.797L567.324 410.955C566.572 409.091 564.373 408.285 562.593 409.22Z" fill="white" stroke="white" stroke-width="3.39748" stroke-linecap="round"/>
</g>
<path d="M770.364 239.773L817.295 319.091H819.114L866.273 239.773H921.841L850.818 356.136L923.432 472.5H866.841L819.114 393.068H817.295L769.568 472.5H713.205L786.045 356.136L714.568 239.773H770.364ZM1041.09 472.5H988.364L1068.7 239.773H1132.11L1212.34 472.5H1159.61L1101.32 292.955H1099.5L1041.09 472.5ZM1037.8 381.023H1162.34V419.432H1037.8V381.023ZM1432.1 239.773H1481.31V390.909C1481.31 407.879 1477.25 422.727 1469.15 435.455C1461.12 448.182 1449.87 458.106 1435.4 465.227C1420.93 472.273 1404.07 475.795 1384.83 475.795C1365.51 475.795 1348.62 472.273 1334.15 465.227C1319.68 458.106 1308.43 448.182 1300.4 435.455C1292.37 422.727 1288.35 407.879 1288.35 390.909V239.773H1337.56V386.705C1337.56 395.568 1339.49 403.447 1343.35 410.341C1347.29 417.235 1352.82 422.652 1359.94 426.591C1367.06 430.53 1375.36 432.5 1384.83 432.5C1394.38 432.5 1402.67 430.53 1409.72 426.591C1416.84 422.652 1422.33 417.235 1426.19 410.341C1430.13 403.447 1432.1 395.568 1432.1 386.705V239.773Z" fill="white"/>
<defs>
<clipPath id="clip0_697_556">
<rect width="512" height="512" fill="white" transform="translate(120 100)"/>
</clipPath>
</defs>
</svg>
