<svg width="2554" height="1548" viewBox="0 0 2554 1548" fill="none" xmlns="http://www.w3.org/2000/svg">
<path d="M1520.9 9H1065.51C979.338 9 902.522 63.3254 873.809 144.577L746.677 504.335C715.509 592.534 780.935 685.047 874.48 685.047H1711.93C1805.48 685.047 1870.9 592.534 1839.74 504.335L1712.6 144.577C1683.89 63.3255 1607.08 9 1520.9 9Z" fill="#D69900" stroke="#D69900" stroke-width="16.9435" stroke-linecap="round"/>
<path d="M1557.46 185.455L895.457 533.401H1718.07L1581.06 194.109C1577.3 184.811 1566.34 180.79 1557.46 185.455Z" fill="white" stroke="white" stroke-width="16.9435" stroke-linecap="round"/>
<path d="M838.077 862.954H382.691C296.516 862.954 219.7 917.28 190.987 998.531L63.8546 1358.29C32.6864 1446.49 98.1128 1539 191.657 1539H1029.11C1122.66 1539 1188.08 1446.49 1156.91 1358.29L1029.78 998.531C1001.07 917.28 924.253 862.954 838.077 862.954Z" fill="#D69900" stroke="#D69900" stroke-width="16.9435" stroke-linecap="round"/>
<path d="M874.642 1039.41L212.635 1387.36H1035.24L898.236 1048.06C894.482 1038.77 883.518 1034.74 874.642 1039.41Z" fill="white" stroke="white" stroke-width="16.9435" stroke-linecap="round"/>
<path d="M2170.68 862.954H1715.3C1629.12 862.954 1552.31 917.28 1523.59 998.531L1396.46 1358.29C1365.29 1446.49 1430.72 1539 1524.26 1539H2361.72C2455.26 1539 2520.69 1446.49 2489.52 1358.29L2362.39 998.531C2333.68 917.28 2256.86 862.954 2170.68 862.954Z" fill="#D69900" stroke="#D69900" stroke-width="16.9435" stroke-linecap="round"/>
<path d="M2207.25 1039.41L1545.24 1387.36H2367.85L2230.84 1048.06C2227.09 1038.77 2216.13 1034.74 2207.25 1039.41Z" fill="white" stroke="white" stroke-width="16.9435" stroke-linecap="round"/>
</svg>
